<?xml version="1.0" encoding="UTF-8"?>
<svg width="125" height="38" viewBox="0 0 125 38" fill="none" xmlns="http://www.w3.org/2000/svg">
<path d="M0 30.5647V23.9577L13.0565 31.3914L20.5663 27.0959L0 14.0423V7.43533L13.0565 0L26.1147 7.43533V14.0423L13.0565 6.60862L5.54835 10.9025L26.1164 23.9577V30.5647L13.0582 38L0 30.5647ZM59.9583 33.1325C58.7225 32.1185 58.0954 30.7654 58.0954 29.112C58.0954 27.5042 58.6723 26.1848 59.8094 25.186C60.9465 24.1838 62.7893 23.6777 65.2842 23.6777H71.8844V22.1154C71.8844 20.3118 71.3944 18.9215 70.4279 17.9835C69.4614 17.0454 68.03 16.568 66.1705 16.568C64.918 16.5629 63.6739 16.7907 62.5017 17.2394C61.4097 17.6393 60.4014 18.2467 59.5335 19.0245L58.6105 17.6849C59.6222 16.7856 60.8011 16.0955 62.0769 15.6569C63.4381 15.171 64.8728 14.9263 66.3159 14.9297C68.6888 14.9297 70.5382 15.5506 71.8091 16.7738C73.08 17.997 73.7271 19.8174 73.7271 22.1896V34.5109H71.9579V31.0506C71.3426 32.1894 70.4061 33.1157 69.2657 33.7129C68.0918 34.3405 66.6654 34.6611 65.0267 34.6611C62.898 34.6594 61.194 34.1448 59.9583 33.1325ZM61.2107 26.173C60.3663 26.863 59.9382 27.8264 59.9382 29.0378C59.9382 30.2964 60.4098 31.3036 61.3395 32.0342C62.2692 32.7614 63.597 33.1308 65.2842 33.1308C66.8761 33.1308 68.2457 32.7546 69.3577 32.0139C70.4697 31.2733 71.3242 30.1817 71.8844 28.7763V25.1286H65.321C63.4364 25.1303 62.0552 25.4812 61.2107 26.173ZM39.2448 33.4126C37.8635 32.5859 36.7448 31.3779 36.0191 29.932V34.5093H34.2499V6.89038H36.0927V19.5104C36.8251 18.1033 37.9388 16.9358 39.3016 16.1411C40.7029 15.3296 42.2949 14.9128 43.9102 14.9314C45.6125 14.9112 47.2914 15.3397 48.778 16.1782C50.216 16.9999 51.3966 18.2129 52.1876 19.6774C53.027 21.2481 53.4518 23.0112 53.4233 24.7963C53.4233 26.6994 53.0086 28.4152 52.1876 29.8966C51.3899 31.3559 50.211 32.5656 48.778 33.394C47.2964 34.2444 45.6158 34.6813 43.9102 34.6594C42.2698 34.678 40.6578 34.2477 39.2448 33.4126ZM39.8334 17.6477C38.6662 18.3428 37.7114 19.3467 37.0676 20.5497C36.377 21.8538 36.0291 23.3149 36.0525 24.7929C36.0275 26.2708 36.377 27.7319 37.0676 29.0361C37.7114 30.239 38.6679 31.2429 39.8334 31.9397C41.0374 32.6416 42.4052 33.0009 43.7948 32.9807C45.1911 32.9992 46.5673 32.6399 47.778 31.9397C48.9519 31.248 49.9151 30.2424 50.5605 29.0361C51.2495 27.7319 51.599 26.2708 51.5755 24.7929C51.6006 23.3149 51.2511 21.8538 50.5605 20.5497C49.9151 19.3433 48.9519 18.3378 47.778 17.6477C46.5673 16.9459 45.1911 16.5848 43.7948 16.6051C42.4069 16.5848 41.0374 16.9442 39.8334 17.6477ZM109.514 34.5126L107.673 34.5109V6.89038H109.515V26.4328L121.831 15.0799H124.191L115.895 22.9336L125 34.5059L122.716 34.5093L114.53 24.1264L109.515 28.7408L109.514 34.5126ZM83.9342 34.5126L82.0915 34.5109V15.0799H83.8606V19.2877C84.5094 17.943 85.5429 16.8278 86.8288 16.0854C88.1398 15.3195 89.7083 14.9314 91.4925 14.9314C93.8905 14.9314 95.8135 15.6451 97.2064 17.0539C98.5994 18.4626 99.3084 20.5142 99.3084 23.1563V34.5059L97.4639 34.5093V23.3048C97.4639 21.13 96.9121 19.4496 95.8235 18.3159C94.7349 17.1821 93.1915 16.6051 91.235 16.6051C88.9842 16.6051 87.1866 17.2934 85.889 18.6533C84.5914 20.0131 83.9342 21.864 83.9342 24.1636V34.5126Z" fill="#222222"/>
</svg>
